# xmcd CD Database Entry
#
# Track frame offsets:
# 150
# 15025
# 29370
# 40065
# 59575
# 75435
# 96223
# 113905
# 129953
# 149388
#
# Disc length: 2159 seconds
#
# Revision: 0
# Processed by: cddbd v1.4b41PL1 Copyright (c) Steve Scherf et al.
# Submitted via: tcd 2.0b
#
DISCID=74086d0a
DTITLE=Various Artist - Oldies
DYEAR=1900
DGENRE=
TTITLE0=Elton John - Goodbye Yellow Brick Road
TTITLE1=Bee Gees - I Started a Joke
TTITLE2=Maureen McGovern - The Morning After
TTITLE3=Moms Mabley - Abraham, Martin and John
TTITLE4=Rubettes - Sugar Baby Love
TTITLE5=10CC - I'm Not in Love
TTITLE6=Nazareth - Love Hurts
TTITLE7=Demis Roussos -  We Shall Dance
TTITLE8=Marmalade - Reflection of My Life
TTITLE9=Platters - Twilight Time
EXTD=
EXTT0=
EXTT1=
EXTT2=
EXTT3=
EXTT4=
EXTT5=
EXTT6=
EXTT7=
EXTT8=
EXTT9=
PLAYORDER=
